<mxfile host="65bd71144e">
    <diagram id="aA1kZwWatXTatZws26sF" name="ER">
        <mxGraphModel dx="906" dy="599" grid="1" gridSize="10" guides="1" tooltips="1" connect="1" arrows="1" fold="1" page="1" pageScale="1" pageWidth="827" pageHeight="1169" math="0" shadow="0">
            <root>
                <mxCell id="0"/>
                <mxCell id="1" parent="0"/>
                <mxCell id="5" value="id  INTEGER&#10;username  VARCHAR(64)&#10;email VARCHAR(64)&#10;password_hash VARCHAR(256)&#10;confirmed BOOLEAN&#10;name  VARCHAR(64)&#10;location  VARCHAR(64)&#10;about_me  TEXT&#10;member_since  DATETIME&#10;last_seen DATETIME&#10;role_id INTEGER&#10;avatar_hash VARCHAR(32) " style="align=left;strokeColor=none;fillColor=none;spacingLeft=4;fontSize=12;verticalAlign=top;resizable=0;rotatable=0;part=1;" vertex="1" parent="1">
                    <mxGeometry x="260" y="370" width="160" height="90" as="geometry"/>
                </mxCell>
                <mxCell id="26" style="html=1;exitX=1;exitY=0.75;exitDx=0;exitDy=0;entryX=0;entryY=0.5;entryDx=0;entryDy=0;fontFamily=Helvetica;fontSize=12;" edge="1" parent="1" source="4" target="15">
                    <mxGeometry relative="1" as="geometry"/>
                </mxCell>
                <mxCell id="4" value="users" style="swimlane;childLayout=stackLayout;horizontal=1;startSize=30;horizontalStack=0;rounded=1;fontSize=14;fontStyle=0;strokeWidth=2;resizeParent=0;resizeLast=1;shadow=0;dashed=0;align=center;container=0;" vertex="1" parent="1">
                    <mxGeometry x="260" y="340" width="200" height="210" as="geometry"/>
                </mxCell>
                <mxCell id="15" value="roles" style="swimlane;childLayout=stackLayout;horizontal=1;startSize=30;horizontalStack=0;rounded=1;fontSize=14;fontStyle=0;strokeWidth=2;resizeParent=0;resizeLast=1;shadow=0;dashed=0;align=center;fontFamily=Helvetica;" vertex="1" parent="1">
                    <mxGeometry x="550" y="430" width="160" height="120" as="geometry"/>
                </mxCell>
                <mxCell id="16" value="id  INTEGER &#10;name  VARCHAR(64)&#10;default BOOLEAN&#10;permissions INTEGER" style="align=left;strokeColor=none;fillColor=none;spacingLeft=4;fontSize=12;verticalAlign=top;resizable=0;rotatable=0;part=1;fontFamily=Helvetica;" vertex="1" parent="15">
                    <mxGeometry y="30" width="160" height="90" as="geometry"/>
                </mxCell>
                <mxCell id="17" value="follows" style="swimlane;childLayout=stackLayout;horizontal=1;startSize=30;horizontalStack=0;rounded=1;fontSize=14;fontStyle=0;strokeWidth=2;resizeParent=0;resizeLast=1;shadow=0;dashed=0;align=center;fontFamily=Helvetica;" vertex="1" parent="1">
                    <mxGeometry x="290" y="170" width="160" height="90" as="geometry"/>
                </mxCell>
                <mxCell id="18" value="follower_id INTEGER&#10;timestamp DATETIME&#10;followed_id INTEGER" style="align=left;strokeColor=none;fillColor=none;spacingLeft=4;fontSize=12;verticalAlign=top;resizable=0;rotatable=0;part=1;fontFamily=Helvetica;" vertex="1" parent="17">
                    <mxGeometry y="30" width="160" height="60" as="geometry"/>
                </mxCell>
                <mxCell id="21" value="posts" style="swimlane;childLayout=stackLayout;horizontal=1;startSize=30;horizontalStack=0;rounded=1;fontSize=14;fontStyle=0;strokeWidth=2;resizeParent=0;resizeLast=1;shadow=0;dashed=0;align=center;fontFamily=Helvetica;" vertex="1" parent="1">
                    <mxGeometry x="240" y="610" width="160" height="120" as="geometry"/>
                </mxCell>
                <mxCell id="22" value="id  INTEGER&#10;body  TEXT&#10;timestamp DATETIME&#10;author_id INTEGER&#10;body_html TEXT" style="align=left;strokeColor=none;fillColor=none;spacingLeft=4;fontSize=12;verticalAlign=top;resizable=0;rotatable=0;part=1;fontFamily=Helvetica;" vertex="1" parent="21">
                    <mxGeometry y="30" width="160" height="90" as="geometry"/>
                </mxCell>
                <mxCell id="23" value="comments" style="swimlane;childLayout=stackLayout;horizontal=1;startSize=30;horizontalStack=0;rounded=1;fontSize=14;fontStyle=0;strokeWidth=2;resizeParent=0;resizeLast=1;shadow=0;dashed=0;align=center;fontFamily=Helvetica;" vertex="1" parent="1">
                    <mxGeometry x="490" y="615" width="160" height="140" as="geometry"/>
                </mxCell>
                <mxCell id="24" value="id  INTEGER&#10;body  TEXT&#10;body_html TEXT&#10;timestamp DATETIME&#10;disabled  BOOLEAN&#10;author_id INTEGER&#10;post_id INTEGER" style="align=left;strokeColor=none;fillColor=none;spacingLeft=4;fontSize=12;verticalAlign=top;resizable=0;rotatable=0;part=1;fontFamily=Helvetica;" vertex="1" parent="23">
                    <mxGeometry y="30" width="160" height="110" as="geometry"/>
                </mxCell>
                <mxCell id="25" style="html=1;exitX=0.25;exitY=0;exitDx=0;exitDy=0;entryX=0.25;entryY=1;entryDx=0;entryDy=0;fontFamily=Helvetica;fontSize=12;" edge="1" parent="1" source="21" target="4">
                    <mxGeometry relative="1" as="geometry"/>
                </mxCell>
                <mxCell id="27" style="html=1;exitX=0;exitY=0.5;exitDx=0;exitDy=0;entryX=1;entryY=0.5;entryDx=0;entryDy=0;fontFamily=Helvetica;fontSize=12;" edge="1" parent="1" source="24" target="22">
                    <mxGeometry relative="1" as="geometry"/>
                </mxCell>
                <mxCell id="28" style="html=1;exitX=0;exitY=0.25;exitDx=0;exitDy=0;entryX=0.75;entryY=1;entryDx=0;entryDy=0;fontFamily=Helvetica;fontSize=12;" edge="1" parent="1" source="24" target="4">
                    <mxGeometry relative="1" as="geometry"/>
                </mxCell>
                <mxCell id="29" style="edgeStyle=orthogonalEdgeStyle;html=1;exitX=0;exitY=0.5;exitDx=0;exitDy=0;entryX=0;entryY=0.25;entryDx=0;entryDy=0;fontFamily=Helvetica;fontSize=12;" edge="1" parent="1" source="18" target="4">
                    <mxGeometry relative="1" as="geometry">
                        <Array as="points">
                            <mxPoint x="220" y="230"/>
                            <mxPoint x="220" y="393"/>
                        </Array>
                    </mxGeometry>
                </mxCell>
                <mxCell id="30" style="edgeStyle=orthogonalEdgeStyle;html=1;exitX=1;exitY=0.5;exitDx=0;exitDy=0;entryX=1;entryY=0.25;entryDx=0;entryDy=0;fontFamily=Helvetica;fontSize=12;" edge="1" parent="1" source="18" target="4">
                    <mxGeometry relative="1" as="geometry">
                        <Array as="points">
                            <mxPoint x="500" y="230"/>
                            <mxPoint x="500" y="393"/>
                        </Array>
                    </mxGeometry>
                </mxCell>
            </root>
        </mxGraphModel>
    </diagram>
</mxfile>